<svg width="32" height="32" viewBox="0 0 32 32" fill="none" xmlns="http://www.w3.org/2000/svg">
<path d="M24.5 2C23.393 1.99979 22.3247 2.40766 21.4995 3.14561C20.6742 3.88356 20.15 4.89981 20.027 6H18V8H24V6H22.05C22.1704 5.4061 22.5024 4.87614 22.9843 4.50869C23.4661 4.14125 24.0651 3.96134 24.6696 4.00242C25.2742 4.0435 25.8433 4.30277 26.2711 4.73202C26.6988 5.16127 26.9561 5.73127 26.995 6.336L27 6.5V16H1V18H3V23C2.99985 23.9731 3.2836 24.9251 3.81647 25.7393C4.34935 26.5536 5.10819 27.1946 6 27.584V30H8V28H24V30H26V27.584C26.8552 27.2106 27.5889 26.6055 28.1181 25.8369C28.6474 25.0684 28.9511 24.1671 28.995 23.235L29 23V18H31V16H29V6.5C29 5.30653 28.5259 4.16193 27.682 3.31802C26.8381 2.47411 25.6935 2 24.5 2ZM5.001 18H27.001L27 23C27.0001 23.7351 26.7303 24.4447 26.2418 24.994C25.7533 25.5434 25.0801 25.8942 24.35 25.98L24.176 25.995L24 26H8C7.23479 26 6.49849 25.7077 5.94174 25.1827C5.38499 24.6578 5.04989 23.9399 5.005 23.176L5 23L5.001 18Z" fill="#B8B8B8"/>
</svg>
