<svg width="25" height="24" viewBox="0 0 25 24" fill="none" xmlns="http://www.w3.org/2000/svg">
<path fill-rule="evenodd" clip-rule="evenodd" d="M7.69147 0.000199544C6.9029 0.000199544 6.11558 0.111424 5.367 0.362616C0.754315 1.86227 -0.9078 6.92361 0.480629 11.3476C1.26795 13.6083 2.55515 15.6716 4.24101 17.3574C6.6542 19.6944 9.30235 21.7689 12.1529 23.556L12.4654 23.7447L12.7903 23.5435C15.6509 21.7689 18.314 19.6944 20.7497 17.345C22.4243 15.6591 23.7128 13.6083 24.5126 11.3476C25.9248 6.92361 24.2626 1.86227 19.6 0.336372C19.2376 0.211401 18.8639 0.123921 18.489 0.0751823H18.339C17.9878 0.0239441 17.6392 0.000199544 17.2893 0.000199544H17.1518C16.3645 0.0239441 15.6021 0.161412 14.8636 0.412605H14.7898C14.7398 0.436349 14.7024 0.462593 14.6774 0.486338C14.4012 0.575067 14.14 0.675044 13.89 0.812512L13.4151 1.02496C13.3004 1.08616 13.1716 1.17968 13.0603 1.2605C12.9898 1.3117 12.9262 1.35781 12.8778 1.38738C12.8574 1.39941 12.8366 1.41151 12.8157 1.42371C12.7086 1.48626 12.597 1.55142 12.5029 1.62358C11.1144 0.56257 9.42857 -0.0122976 7.69147 0.000199544ZM4.37277 8.99755C3.86039 8.9838 3.42299 8.57265 3.3855 8.04652V7.8978C3.34801 6.14695 4.40901 4.56107 6.02239 3.94871C6.53477 3.7725 7.09714 4.04869 7.2846 4.57357C7.45956 5.09844 7.18462 5.67331 6.65975 5.85952C5.85868 6.15945 5.32255 6.94802 5.32255 7.82157V7.86031C5.3463 8.14649 5.26007 8.42268 5.08511 8.63513C4.91015 8.84758 4.64771 8.9713 4.37277 8.99755Z" fill="#EC5655"/>
<path fill-rule="evenodd" clip-rule="evenodd" d="M17.3085 0.000199544C18.0971 0.000199544 18.8844 0.111424 19.633 0.362616C24.2457 1.86227 25.9078 6.92361 24.5194 11.3476C23.732 13.6083 22.4448 15.6716 20.759 17.3574C18.3458 19.6944 15.6977 21.7689 12.8471 23.556L12.5346 23.7447L12.2097 23.5435C9.34912 21.7689 6.68598 19.6944 4.25029 17.345C2.57568 15.6591 1.28722 13.6083 0.487408 11.3476C-0.924766 6.92361 0.737351 1.86227 5.40003 0.336372C5.76244 0.211401 6.13611 0.123921 6.51102 0.0751823H6.66098C7.01215 0.0239441 7.36082 0.000199544 7.71074 0.000199544H7.84821C8.63553 0.0239441 9.39785 0.161412 10.1364 0.412605H10.2102C10.2602 0.436349 10.2976 0.462593 10.3226 0.486338C10.5988 0.575067 10.86 0.675044 11.11 0.812512L11.5848 1.02496C11.6996 1.08616 11.8284 1.17968 11.9397 1.2605C12.0102 1.3117 12.0738 1.35781 12.1222 1.38738C12.1426 1.39941 12.1633 1.41151 12.1842 1.42371C12.2914 1.48626 12.403 1.55142 12.4971 1.62358C13.8856 0.56257 15.5714 -0.0122976 17.3085 0.000199544ZM20.6272 8.99755C21.1396 8.9838 21.577 8.57265 21.6145 8.04652V7.8978C21.652 6.14695 20.591 4.56107 18.9776 3.94871C18.4652 3.7725 17.9029 4.04869 17.7154 4.57357C17.5404 5.09844 17.8154 5.67331 18.3403 5.85952C19.1413 6.15945 19.6774 6.94802 19.6774 7.82157V7.86031C19.6537 8.14649 19.7399 8.42268 19.9149 8.63513C20.0899 8.84758 20.3523 8.9713 20.6272 8.99755Z" fill="#EC5655"/>
</svg>
