<svg width="32" height="32" viewBox="0 0 32 32" fill="none" xmlns="http://www.w3.org/2000/svg">
<path d="M24 26C24.988 26 25.945 26.351 26.671 27.009C26.977 27.285 27.381 27.454 27.813 27.492L28 27.5V29.5L27.772 29.494C26.8669 29.4491 26.0046 29.095 25.329 28.491C24.9618 28.1689 24.4884 27.994 24 28C23.498 28 23.022 28.175 22.672 28.491C21.9375 29.1461 20.9862 29.5056 20.002 29.5C19.0171 29.5061 18.065 29.1466 17.33 28.491C16.9626 28.1686 16.4888 27.9937 16 28C15.497 28 15.02 28.175 14.671 28.491C13.9365 29.146 12.9852 29.5055 12.001 29.5C11.0163 29.5063 10.0642 29.1471 9.329 28.492C8.96197 28.1695 8.48856 27.9942 8 28C7.497 28 7.02 28.175 6.67 28.491C5.99468 29.0948 5.13276 29.4488 4.228 29.494L4 29.5V27.5L4.187 27.492C4.61003 27.4593 5.0109 27.2898 5.329 27.009C6.06364 26.3535 7.01543 25.9939 8 26C8.988 26 9.945 26.352 10.671 27.009C11.021 27.325 11.497 27.499 12.001 27.5C12.503 27.5 12.98 27.325 13.329 27.008C14.0637 26.3528 15.0155 25.9936 16 26C16.988 26 17.945 26.351 18.671 27.009C19.021 27.325 19.497 27.499 20.001 27.5C20.503 27.5 20.98 27.325 21.329 27.009C22.0634 26.3537 23.0148 25.9942 23.999 26H24ZM24 21C24.988 21 25.945 21.351 26.671 22.009C26.977 22.285 27.381 22.454 27.813 22.492L28 22.5V24.5L27.772 24.494C26.8669 24.4491 26.0046 24.095 25.329 23.491C24.9618 23.1689 24.4884 22.994 24 23C23.498 23 23.022 23.175 22.672 23.491C21.9375 24.1461 20.9862 24.5056 20.002 24.5C19.0171 24.5061 18.065 24.1466 17.33 23.491C16.9626 23.1686 16.4888 22.9937 16 23C15.497 23 15.02 23.175 14.671 23.491C13.9365 24.146 12.9852 24.5055 12.001 24.5C11.0163 24.5063 10.0642 24.1471 9.329 23.492C8.96197 23.1695 8.48856 22.9942 8 23C7.497 23 7.02 23.175 6.67 23.491C5.99468 24.0948 5.13276 24.4488 4.228 24.494L4 24.5V22.5L4.187 22.492C4.61003 22.4593 5.0109 22.2898 5.329 22.009C6.06364 21.3535 7.01543 20.9939 8 21C8.988 21 9.945 21.352 10.671 22.009C11.021 22.325 11.497 22.499 12.001 22.5C12.503 22.5 12.98 22.325 13.329 22.008C14.0637 21.3528 15.0155 20.9936 16 21C16.988 21 17.945 21.351 18.671 22.009C19.021 22.325 19.497 22.499 20.001 22.5C20.503 22.5 20.98 22.325 21.329 22.009C22.0634 21.3537 23.0148 20.9942 23.999 21H24ZM20 3C21.0262 3 22.0132 3.39444 22.7568 4.10173C23.5004 4.80902 23.9437 5.77505 23.995 6.8L24 7V9H28V11H24V16C24.912 16 25.798 16.3 26.5 16.862L26.671 17.009C26.977 17.285 27.381 17.454 27.813 17.492L28 17.5V19.5L27.772 19.494C26.8669 19.4491 26.0046 19.095 25.329 18.491C24.9618 18.1689 24.4884 17.994 24 18C23.498 18 23.022 18.175 22.672 18.491C21.9375 19.1461 20.9862 19.5056 20.002 19.5C19.0171 19.5061 18.065 19.1466 17.33 18.491C16.9626 18.1686 16.4888 17.9937 16 18C15.497 18 15.02 18.175 14.671 18.491C13.9365 19.146 12.9852 19.5055 12.001 19.5C11.0163 19.5063 10.0642 19.1471 9.329 18.492C8.96197 18.1695 8.48856 17.9942 8 18C7.497 18 7.02 18.175 6.67 18.491C5.99468 19.0948 5.13276 19.4488 4.228 19.494L4 19.5V17.5L4.187 17.492C4.61003 17.4593 5.0109 17.2898 5.329 17.009C6.06364 16.3535 7.01543 15.9939 8 16C8.988 16 9.945 16.352 10.671 17.009C11.021 17.325 11.497 17.499 12.001 17.5C12.503 17.5 12.98 17.325 13.329 17.008C14.0048 16.4039 14.8676 16.0501 15.773 16.006L16 16V11H4V9H16V7C16.0023 6.48102 15.8028 5.98146 15.4436 5.60685C15.0844 5.23225 14.5937 5.01194 14.0751 4.99246C13.5564 4.97299 13.0506 5.15588 12.6643 5.5025C12.278 5.84911 12.0416 6.33231 12.005 6.85L12 7H10C10.0002 6.18758 10.2477 5.39447 10.7097 4.72618C11.1716 4.0579 11.8262 3.54613 12.5861 3.25897C13.3461 2.9718 14.1755 2.92286 14.964 3.11865C15.7525 3.31445 16.4626 3.74569 17 4.355C17.3747 3.92849 17.8362 3.58695 18.3535 3.35326C18.8709 3.11957 19.4323 2.99913 20 3ZM18 16.523C18.16 16.614 18.313 16.717 18.459 16.83L18.671 17.009C19.021 17.325 19.497 17.499 20.001 17.5C20.44 17.5 20.861 17.366 21.192 17.12L21.329 17.009C21.535 16.822 21.76 16.659 21.999 16.523V11H17.999L18 16.523ZM20 5C19.4954 4.99985 19.0094 5.19041 18.6395 5.5335C18.2695 5.87659 18.0428 6.34685 18.005 6.85L18 7V9H22V7C22 6.46957 21.7893 5.96086 21.4142 5.58579C21.0391 5.21072 20.5304 5 20 5Z" fill="#B8B8B8"/>
</svg>
