<svg width="32" height="32" viewBox="0 0 32 32" fill="none" xmlns="http://www.w3.org/2000/svg">
<g clip-path="url(#clip0_1_36)">
<path d="M15.9999 20.3332C18.0249 20.3332 19.6666 21.9748 19.6666 23.9999C19.6666 26.0249 18.0249 27.6666 15.9999 27.6666C13.9749 27.6666 12.3332 26.0249 12.3332 23.9999C12.3332 21.9748 13.9749 20.3332 15.9999 20.3332ZM15.9999 22.3332C15.0794 22.3332 14.3332 23.0794 14.3332 23.9999C14.3332 24.9204 15.0794 25.6666 15.9999 25.6666C16.9204 25.6666 17.6666 24.9204 17.6666 23.9999C17.6666 23.0794 16.9204 22.3332 15.9999 22.3332ZM16 15C19.5168 15 22.5625 17.0171 24.0432 19.9575L22.5289 21.4702C21.5147 18.8545 18.9739 17 16 17C13.0261 17 10.4853 18.8545 9.47109 21.4702L7.95727 19.9565C9.43818 17.0167 12.4836 15 16 15ZM16.0001 9.66679C20.9806 9.66679 25.3677 12.207 27.9367 16.0625L26.4896 17.5099C24.3149 14.0026 20.4303 11.6668 16.0001 11.6668C11.5699 11.6668 7.68528 14.0026 5.5106 17.5099L4.06351 16.0625C6.63246 12.207 11.0196 9.66679 16.0001 9.66679ZM15.9999 4.33319C22.451 4.33319 28.1766 7.43923 31.7628 12.2374L30.3323 13.6684C27.1237 9.22496 21.8995 6.33319 15.9999 6.33319C10.1008 6.33319 4.87691 9.22453 1.6682 13.6674L0.237728 12.2364C3.82403 7.4388 9.54929 4.33319 15.9999 4.33319Z" fill="#B8B8B8"/>
</g>
<defs>
<clipPath id="clip0_1_36">
<rect width="32" height="32" fill="white"/>
</clipPath>
</defs>
</svg>
