<?xml version="1.0" encoding="UTF-8"?>
<svg width="64px" height="64px" viewBox="0 0 64 64" version="1.1" xmlns="http://www.w3.org/2000/svg" xmlns:xlink="http://www.w3.org/1999/xlink">
    <title>loading@1x</title>
    <g id="页面-1" stroke="none" stroke-width="1" fill="none" fill-rule="evenodd">
        <g id="识别中" transform="translate(-343.000000, -613.000000)" fill="#FFFFFF" fill-rule="nonzero">
            <g id="编组-2" transform="translate(343.000000, 613.000000)">
                <path d="M60,28.5 C61.9329966,28.5 63.5,30.0670034 63.5,32 C63.5,49.3969696 49.3969696,63.5 32,63.5 C30.0670034,63.5 28.5,61.9329966 28.5,60 C28.5,58.0670034 30.0670034,56.5 32,56.5 C45.5309764,56.5 56.5,45.5309764 56.5,32 C56.5,30.0670034 58.0670034,28.5 60,28.5 Z M32,0.5 C33.9329966,0.5 35.5,2.06700338 35.5,4 C35.5,5.93299662 33.9329966,7.5 32,7.5 C18.4690236,7.5 7.5,18.4690236 7.5,32 C7.5,33.9329966 5.93299662,35.5 4,35.5 C2.06700338,35.5 0.5,33.9329966 0.5,32 C0.5,14.6030304 14.6030304,0.5 32,0.5 Z" id="形状"></path>
            </g>
        </g>
    </g>
</svg>